<svg width="40" height="40" viewBox="0 0 40 40" fill="none" xmlns="http://www.w3.org/2000/svg">
<path d="M14.7359 35C10.6922 35 6.92271 33.8239 3.75 31.7945C6.44374 31.9689 11.1976 31.5514 14.1545 28.731C9.70635 28.5269 7.70033 25.1154 7.43868 23.6575C7.81661 23.8033 9.61913 23.9783 10.6367 23.57C5.51988 22.287 4.73491 17.7966 4.90935 16.4262C5.86875 17.0969 7.49681 17.3301 8.13641 17.2717C3.36849 13.8602 5.08379 8.72845 5.92689 7.62044C9.34853 12.3608 14.4765 15.0233 20.8205 15.1713C20.7009 14.6468 20.6378 14.1005 20.6378 13.5395C20.6378 9.51365 23.8918 6.25 27.9059 6.25C30.0031 6.25 31.893 7.14094 33.2196 8.56605C34.6211 8.23764 36.7304 7.46884 37.7615 6.804C37.2417 8.67014 35.6236 10.2269 34.6449 10.8038C34.6369 10.7841 34.653 10.8235 34.6449 10.8038C35.5046 10.6738 37.831 10.2267 38.75 9.6032C38.2955 10.6516 36.58 12.3947 35.1721 13.3705C35.4341 24.9226 26.5956 35 14.7359 35Z" fill="#47ACDF"/>
</svg>
